{"accessors":[{"bufferView":0,"byteOffset":0,"componentType":5126,"count":8,"max":[-0.06,0.097,0.055],"min":[-0.06,-0.097,-0.055],"type":"VEC3"},{"bufferView":0,"byteOffset":96,"componentType":5126,"count":272,"max":[0.06,0.097,0.055],"min":[-0.06,-0.097,0.05499999999999999],"type":"VEC3"},{"bufferView":0,"byteOffset":3360,"componentType":5126,"count":4,"max":[0.06,-0.09,0.045],"min":[-0.06,-0.097,0.045],"type":"VEC3"},{"bufferView":0,"byteOffset":3408,"componentType":5126,"count":4,"max":[0.06,-0.097,0.055],"min":[-0.06,-0.097,0.045],"type":"VEC3"},{"bufferView":0,"byteOffset":3456,"componentType":5126,"count":8,"max":[0.06,0.097,0.055],"min":[0.06,-0.097,-0.055],"type":"VEC3"},{"bufferView":0,"byteOffset":3552,"componentType":5126,"count":4,"max":[0.06,-0.09,0.045],"min":[-0.06,-0.09,-0.055],"type":"VEC3"},{"bufferView":0,"byteOffset":3600,"componentType":5126,"count":4,"max":[0.0012011718750000009,-0.06105224609374999,0.057],"min":[0.0012011718749999991,-0.06894775390625,0.055],"type":"VEC3"},{"bufferView":0,"byteOffset":3648,"componentType":5126,"count":4,"max":[0.0012011718750000009,-0.06105224609374999,0.057],"min":[-0.0012011718749999991,-0.06105224609374999,0.055],"type":"VEC3"},{"bufferView":0,"byteOffset":3696,"componentType":5126,"count":4,"max":[-0.0012011718749999991,-0.06105224609374999,0.057],"min":[-0.0012011718750000009,-0.06894775390625,0.055],"type":"VEC3"},{"bufferView":0,"byteOffset":3744,"componentType":5126,"count":4,"max":[0.0012011718749999991,-0.06894775390625,0.057],"min":[-0.0012011718750000009,-0.06894775390625,0.055],"type":"VEC3"},{"bufferView":0,"byteOffset":3792,"componentType":5126,"count":254,"max":[0.035,-0.06000155408999591,0.085],"min":[0.025,-0.06999844591000408,0.055],"type":"VEC3"},{"bufferView":0,"byteOffset":6840,"componentType":5126,"count":4,"max":[-0.0012451171875000003,0.06376953125000001,0.057],"min":[-0.009404296875,0.06376953125000001,0.055],"type":"VEC3"},{"bufferView":0,"byteOffset":6888,"componentType":5126,"count":4,"max":[-0.0012451171875000003,0.06376953125000001,0.057],"min":[-0.001245117187500002,0.05561035156250001,0.055],"type":"VEC3"},{"bufferView":0,"byteOffset":6936,"componentType":5126,"count":4,"max":[0.001245117187499998,0.05561035156250001,0.057],"min":[-0.001245117187500002,0.05561035156250001,0.055],"type":"VEC3"},{"bufferView":0,"byteOffset":6984,"componentType":5126,"count":4,"max":[0.0012451171874999997,0.06376953125000001,0.057],"min":[0.001245117187499998,0.05561035156250001,0.055],"type":"VEC3"},{"bufferView":0,"byteOffset":7032,"componentType":5126,"count":4,"max":[0.009404296875,0.06376953125000001,0.057],"min":[0.0012451171874999997,0.06376953125000001,0.055],"type":"VEC3"},{"bufferView":0,"byteOffset":7080,"componentType":5126,"count":4,"max":[0.009404296875,0.06623046875000001,0.057],"min":[0.009404296875,0.06376953125000001,0.055],"type":"VEC3"},{"bufferView":0,"byteOffset":7128,"componentType":5126,"count":4,"max":[0.009404296875,0.06623046875000001,0.057],"min":[0.0012451171875000003,0.06623046875000001,0.055],"type":"VEC3"},{"bufferView":0,"byteOffset":7176,"componentType":5126,"count":4,"max":[0.001245117187500002,0.0743896484375,0.057],"min":[0.0012451171875000003,0.06623046875000001,0.055],"type":"VEC3"},{"bufferView":0,"byteOffset":7224,"componentType":5126,"count":4,"max":[0.001245117187500002,0.0743896484375,0.057],"min":[-0.001245117187499998,0.0743896484375,0.055],"type":"VEC3"},{"bufferView":0,"byteOffset":7272,"componentType":5126,"count":4,"max":[-0.001245117187499998,0.0743896484375,0.057],"min":[-0.0012451171874999997,0.06623046875000001,0.055],"type":"VEC3"},{"bufferView":0,"byteOffset":7320,"componentType":5126,"count":4,"max":[-0.0012451171874999997,0.06623046875000001,0.057],"min":[-0.009404296875,0.06623046875000001,0.055],"type":"VEC3"},{"bufferView":0,"byteOffset":7368,"componentType":5126,"count":4,"max":[-0.009404296875,0.06623046875000001,0.057],"min":[-0.009404296875,0.06376953125000001,0.055],"type":"VEC3"},{"bufferView":0,"byteOffset":7416,"componentType":5126,"count":254,"max":[0.035,0.06999844591000408,0.08500000000000002],"min":[0.025,0.06000155408999591,0.055],"type":"VEC3"},{"bufferView":0,"byteOffset":10464,"componentType":5126,"count":4,"max":[0.06,0.097,0.05499999999999999],"min":[-0.06,0.097,0.04499999999999999],"type":"VEC3"},{"bufferView":0,"byteOffset":10512,"componentType":5126,"count":4,"max":[0.06,0.097,0.045],"min":[-0.06,0.09,0.04499999999999999],"type":"VEC3"},{"bufferView":0,"byteOffset":10560,"componentType":5126,"count":4,"max":[0.06,0.09,0.045],"min":[-0.06,0.09,-0.05499999999999999],"type":"VEC3"},{"bufferView":0,"byteOffset":10608,"componentType":5126,"count":4,"max":[0.06,0.09,-0.05499999999999999],"min":[-0.06,-0.09,-0.055],"type":"VEC3"},{"bufferView":0,"byteOffset":10656,"componentType":5126,"count":4,"max":[0.0012011718750000009,-0.06105224609374999,0.057],"min":[-0.0012011718750000009,-0.06894775390625,0.057],"type":"VEC3"},{"bufferView":0,"byteOffset":10704,"componentType":5126,"count":126,"max":[0.035,-0.060001554089995926,0.085],"min":[0.025,-0.06999844591000408,0.08499999999999999],"type":"VEC3"},{"bufferView":0,"byteOffset":12216,"componentType":5126,"count":12,"max":[0.009404296875,0.0743896484375,0.057],"min":[-0.009404296875,0.05561035156250001,0.057],"type":"VEC3"},{"bufferView":0,"byteOffset":12360,"componentType":5126,"count":126,"max":[0.035,0.06999844591000408,0.085],"min":[0.025,0.06000155408999592,0.08499999999999999],"type":"VEC3"},{"bufferView":1,"byteOffset":0,"componentType":5126,"count":8,"type":"VEC3"},{"bufferView":1,"byteOffset":96,"componentType":5126,"count":272,"type":"VEC3"},{"bufferView":1,"byteOffset":3360,"componentType":5126,"count":4,"type":"VEC3"},{"bufferView":1,"byteOffset":3408,"componentType":5126,"count":4,"type":"VEC3"},{"bufferView":1,"byteOffset":3456,"componentType":5126,"count":8,"type":"VEC3"},{"bufferView":1,"byteOffset":3552,"componentType":5126,"count":4,"type":"VEC3"},{"bufferView":1,"byteOffset":3600,"componentType":5126,"count":4,"type":"VEC3"},{"bufferView":1,"byteOffset":3648,"componentType":5126,"count":4,"type":"VEC3"},{"bufferView":1,"byteOffset":3696,"componentType":5126,"count":4,"type":"VEC3"},{"bufferView":1,"byteOffset":3744,"componentType":5126,"count":4,"type":"VEC3"},{"bufferView":1,"byteOffset":3792,"componentType":5126,"count":254,"type":"VEC3"},{"bufferView":1,"byteOffset":6840,"componentType":5126,"count":4,"type":"VEC3"},{"bufferView":1,"byteOffset":6888,"componentType":5126,"count":4,"type":"VEC3"},{"bufferView":1,"byteOffset":6936,"componentType":5126,"count":4,"type":"VEC3"},{"bufferView":1,"byteOffset":6984,"componentType":5126,"count":4,"type":"VEC3"},{"bufferView":1,"byteOffset":7032,"componentType":5126,"count":4,"type":"VEC3"},{"bufferView":1,"byteOffset":7080,"componentType":5126,"count":4,"type":"VEC3"},{"bufferView":1,"byteOffset":7128,"componentType":5126,"count":4,"type":"VEC3"},{"bufferView":1,"byteOffset":7176,"componentType":5126,"count":4,"type":"VEC3"},{"bufferView":1,"byteOffset":7224,"componentType":5126,"count":4,"type":"VEC3"},{"bufferView":1,"byteOffset":7272,"componentType":5126,"count":4,"type":"VEC3"},{"bufferView":1,"byteOffset":7320,"componentType":5126,"count":4,"type":"VEC3"},{"bufferView":1,"byteOffset":7368,"componentType":5126,"count":4,"type":"VEC3"},{"bufferView":1,"byteOffset":7416,"componentType":5126,"count":254,"type":"VEC3"},{"bufferView":1,"byteOffset":10464,"componentType":5126,"count":4,"type":"VEC3"},{"bufferView":1,"byteOffset":10512,"componentType":5126,"count":4,"type":"VEC3"},{"bufferView":1,"byteOffset":10560,"componentType":5126,"count":4,"type":"VEC3"},{"bufferView":1,"byteOffset":10608,"componentType":5126,"count":4,"type":"VEC3"},{"bufferView":1,"byteOffset":10656,"componentType":5126,"count":4,"type":"VEC3"},{"bufferView":1,"byteOffset":10704,"componentType":5126,"count":126,"type":"VEC3"},{"bufferView":1,"byteOffset":12216,"componentType":5126,"count":12,"type":"VEC3"},{"bufferView":1,"byteOffset":12360,"componentType":5126,"count":126,"type":"VEC3"},{"bufferView":2,"byteOffset":0,"componentType":5123,"count":18,"type":"SCALAR"},{"bufferView":2,"byteOffset":36,"componentType":5123,"count":834,"type":"SCALAR"},{"bufferView":2,"byteOffset":1704,"componentType":5123,"count":6,"type":"SCALAR"},{"bufferView":2,"byteOffset":1716,"componentType":5123,"count":6,"type":"SCALAR"},{"bufferView":2,"byteOffset":1728,"componentType":5123,"count":18,"type":"SCALAR"},{"bufferView":2,"byteOffset":1764,"componentType":5123,"count":6,"type":"SCALAR"},{"bufferView":2,"byteOffset":1776,"componentType":5123,"count":6,"type":"SCALAR"},{"bufferView":2,"byteOffset":1788,"componentType":5123,"count":6,"type":"SCALAR"},{"bufferView":2,"byteOffset":1800,"componentType":5123,"count":6,"type":"SCALAR"},{"bufferView":2,"byteOffset":1812,"componentType":5123,"count":6,"type":"SCALAR"},{"bufferView":2,"byteOffset":1824,"componentType":5123,"count":756,"type":"SCALAR"},{"bufferView":2,"byteOffset":3336,"componentType":5123,"count":6,"type":"SCALAR"},{"bufferView":2,"byteOffset":3348,"componentType":5123,"count":6,"type":"SCALAR"},{"bufferView":2,"byteOffset":3360,"componentType":5123,"count":6,"type":"SCALAR"},{"bufferView":2,"byteOffset":3372,"componentType":5123,"count":6,"type":"SCALAR"},{"bufferView":2,"byteOffset":3384,"componentType":5123,"count":6,"type":"SCALAR"},{"bufferView":2,"byteOffset":3396,"componentType":5123,"count":6,"type":"SCALAR"},{"bufferView":2,"byteOffset":3408,"componentType":5123,"count":6,"type":"SCALAR"},{"bufferView":2,"byteOffset":3420,"componentType":5123,"count":6,"type":"SCALAR"},{"bufferView":2,"byteOffset":3432,"componentType":5123,"count":6,"type":"SCALAR"},{"bufferView":2,"byteOffset":3444,"componentType":5123,"count":6,"type":"SCALAR"},{"bufferView":2,"byteOffset":3456,"componentType":5123,"count":6,"type":"SCALAR"},{"bufferView":2,"byteOffset":3468,"componentType":5123,"count":6,"type":"SCALAR"},{"bufferView":2,"byteOffset":3480,"componentType":5123,"count":756,"type":"SCALAR"},{"bufferView":2,"byteOffset":4992,"componentType":5123,"count":6,"type":"SCALAR"},{"bufferView":2,"byteOffset":5004,"componentType":5123,"count":6,"type":"SCALAR"},{"bufferView":2,"byteOffset":5016,"componentType":5123,"count":6,"type":"SCALAR"},{"bufferView":2,"byteOffset":5028,"componentType":5123,"count":6,"type":"SCALAR"},{"bufferView":2,"byteOffset":5040,"componentType":5123,"count":6,"type":"SCALAR"},{"bufferView":2,"byteOffset":5052,"componentType":5123,"count":372,"type":"SCALAR"},{"bufferView":2,"byteOffset":5796,"componentType":5123,"count":30,"type":"SCALAR"},{"bufferView":2,"byteOffset":5856,"componentType":5123,"count":372,"type":"SCALAR"}],"asset":{"generator":"Open CASCADE Technology 7.8 [dev.opencascade.org]","version":"2.0"},"bufferViews":[{"buffer":0,"byteLength":13872,"byteOffset":0,"byteStride":12,"target":34962},{"buffer":0,"byteLength":13872,"byteOffset":13872,"byteStride":12,"target":34962},{"buffer":0,"byteLength":6600,"byteOffset":27744,"target":34963}],"buffers":[{"byteLength":34344,"uri":"battery.bin"}],"meshes":[{"name":"COMPOUND","primitives":[{"attributes":{"NORMAL":32,"POSITION":0},"indices":64,"mode":4},{"attributes":{"NORMAL":33,"POSITION":1},"indices":65,"mode":4},{"attributes":{"NORMAL":34,"POSITION":2},"indices":66,"mode":4},{"attributes":{"NORMAL":35,"POSITION":3},"indices":67,"mode":4},{"attributes":{"NORMAL":36,"POSITION":4},"indices":68,"mode":4},{"attributes":{"NORMAL":37,"POSITION":5},"indices":69,"mode":4},{"attributes":{"NORMAL":38,"POSITION":6},"indices":70,"mode":4},{"attributes":{"NORMAL":39,"POSITION":7},"indices":71,"mode":4},{"attributes":{"NORMAL":40,"POSITION":8},"indices":72,"mode":4},{"attributes":{"NORMAL":41,"POSITION":9},"indices":73,"mode":4},{"attributes":{"NORMAL":42,"POSITION":10},"indices":74,"mode":4},{"attributes":{"NORMAL":43,"POSITION":11},"indices":75,"mode":4},{"attributes":{"NORMAL":44,"POSITION":12},"indices":76,"mode":4},{"attributes":{"NORMAL":45,"POSITION":13},"indices":77,"mode":4},{"attributes":{"NORMAL":46,"POSITION":14},"indices":78,"mode":4},{"attributes":{"NORMAL":47,"POSITION":15},"indices":79,"mode":4},{"attributes":{"NORMAL":48,"POSITION":16},"indices":80,"mode":4},{"attributes":{"NORMAL":49,"POSITION":17},"indices":81,"mode":4},{"attributes":{"NORMAL":50,"POSITION":18},"indices":82,"mode":4},{"attributes":{"NORMAL":51,"POSITION":19},"indices":83,"mode":4},{"attributes":{"NORMAL":52,"POSITION":20},"indices":84,"mode":4},{"attributes":{"NORMAL":53,"POSITION":21},"indices":85,"mode":4},{"attributes":{"NORMAL":54,"POSITION":22},"indices":86,"mode":4},{"attributes":{"NORMAL":55,"POSITION":23},"indices":87,"mode":4},{"attributes":{"NORMAL":56,"POSITION":24},"indices":88,"mode":4},{"attributes":{"NORMAL":57,"POSITION":25},"indices":89,"mode":4},{"attributes":{"NORMAL":58,"POSITION":26},"indices":90,"mode":4},{"attributes":{"NORMAL":59,"POSITION":27},"indices":91,"mode":4},{"attributes":{"NORMAL":60,"POSITION":28},"indices":92,"mode":4},{"attributes":{"NORMAL":61,"POSITION":29},"indices":93,"mode":4},{"attributes":{"NORMAL":62,"POSITION":30},"indices":94,"mode":4},{"attributes":{"NORMAL":63,"POSITION":31},"indices":95,"mode":4}]}],"nodes":[{"rotation":[-0.7071067811865475,0.0,0.0,0.7071067811865475],"mesh":0,"name":"=>[0:1:1:2]"}],"scene":0,"scenes":[{"nodes":[0]}]}