{"accessors":[{"bufferView":0,"byteOffset":0,"componentType":5126,"count":4,"max":[0.5000000000000001,0.20000000000000007,0.1],"min":[0.5,-0.20000000000000007,-0.3],"type":"VEC3"},{"bufferView":0,"byteOffset":48,"componentType":5126,"count":164,"max":[0.5,0.5,0.3],"min":[-0.5,-0.5,0.1],"type":"VEC3"},{"bufferView":0,"byteOffset":2016,"componentType":5126,"count":73,"max":[0.5000000000000001,0.5000000000000001,0.15999999999999995],"min":[0.2000000000000001,0.20000000000000007,-0.3],"type":"VEC3"},{"bufferView":0,"byteOffset":2892,"componentType":5126,"count":68,"max":[0.5,0.5,-0.3],"min":[-0.5,-0.5000000000000001,-0.3],"type":"VEC3"},{"bufferView":0,"byteOffset":3708,"componentType":5126,"count":73,"max":[0.5000000000000001,-0.20000000000000004,0.15999999999999995],"min":[0.2000000000000001,-0.5000000000000001,-0.3],"type":"VEC3"},{"bufferView":0,"byteOffset":4584,"componentType":5126,"count":4,"max":[-0.5,0.5,0.3],"min":[-0.5,-0.5,-0.3],"type":"VEC3"},{"bufferView":0,"byteOffset":4632,"componentType":5126,"count":4,"max":[0.20000000000000012,0.5000000000000001,0.3],"min":[-0.5,0.5,-0.3],"type":"VEC3"},{"bufferView":0,"byteOffset":4680,"componentType":5126,"count":4,"max":[0.20000000000000012,-0.5,0.3],"min":[-0.5,-0.5000000000000001,-0.3],"type":"VEC3"},{"bufferView":0,"byteOffset":4728,"componentType":5126,"count":73,"max":[0.45000000000000007,0.45000000000000007,0.16999999999999998],"min":[0.15000000000000005,0.15000000000000008,-0.25],"type":"VEC3"},{"bufferView":0,"byteOffset":5604,"componentType":5126,"count":4,"max":[0.15000000000000005,0.45000000000000007,0.29],"min":[-0.45,0.45,-0.25],"type":"VEC3"},{"bufferView":0,"byteOffset":5652,"componentType":5126,"count":4,"max":[-0.45,0.45,0.29],"min":[-0.45,-0.45,-0.25],"type":"VEC3"},{"bufferView":0,"byteOffset":5700,"componentType":5126,"count":4,"max":[0.15000000000000008,-0.45,0.29],"min":[-0.45,-0.45000000000000007,-0.25],"type":"VEC3"},{"bufferView":0,"byteOffset":5748,"componentType":5126,"count":73,"max":[0.45000000000000007,-0.15000000000000005,0.17],"min":[0.15000000000000008,-0.45000000000000007,-0.25],"type":"VEC3"},{"bufferView":0,"byteOffset":6624,"componentType":5126,"count":4,"max":[0.45000000000000007,0.15000000000000008,0.10999999999999997],"min":[0.45000000000000007,-0.15000000000000005,-0.25],"type":"VEC3"},{"bufferView":0,"byteOffset":6672,"componentType":5126,"count":68,"max":[0.45000000000000007,0.45000000000000007,-0.25],"min":[-0.45,-0.45000000000000007,-0.25],"type":"VEC3"},{"bufferView":1,"byteOffset":0,"componentType":5126,"count":4,"type":"VEC3"},{"bufferView":1,"byteOffset":48,"componentType":5126,"count":164,"type":"VEC3"},{"bufferView":1,"byteOffset":2016,"componentType":5126,"count":73,"type":"VEC3"},{"bufferView":1,"byteOffset":2892,"componentType":5126,"count":68,"type":"VEC3"},{"bufferView":1,"byteOffset":3708,"componentType":5126,"count":73,"type":"VEC3"},{"bufferView":1,"byteOffset":4584,"componentType":5126,"count":4,"type":"VEC3"},{"bufferView":1,"byteOffset":4632,"componentType":5126,"count":4,"type":"VEC3"},{"bufferView":1,"byteOffset":4680,"componentType":5126,"count":4,"type":"VEC3"},{"bufferView":1,"byteOffset":4728,"componentType":5126,"count":73,"type":"VEC3"},{"bufferView":1,"byteOffset":5604,"componentType":5126,"count":4,"type":"VEC3"},{"bufferView":1,"byteOffset":5652,"componentType":5126,"count":4,"type":"VEC3"},{"bufferView":1,"byteOffset":5700,"componentType":5126,"count":4,"type":"VEC3"},{"bufferView":1,"byteOffset":5748,"componentType":5126,"count":73,"type":"VEC3"},{"bufferView":1,"byteOffset":6624,"componentType":5126,"count":4,"type":"VEC3"},{"bufferView":1,"byteOffset":6672,"componentType":5126,"count":68,"type":"VEC3"},{"bufferView":2,"byteOffset":0,"componentType":5123,"count":6,"type":"SCALAR"},{"bufferView":2,"byteOffset":12,"componentType":5123,"count":492,"type":"SCALAR"},{"bufferView":2,"byteOffset":996,"componentType":5123,"count":213,"type":"SCALAR"},{"bufferView":2,"byteOffset":1424,"componentType":5123,"count":198,"type":"SCALAR"},{"bufferView":2,"byteOffset":1820,"componentType":5123,"count":213,"type":"SCALAR"},{"bufferView":2,"byteOffset":2248,"componentType":5123,"count":6,"type":"SCALAR"},{"bufferView":2,"byteOffset":2260,"componentType":5123,"count":6,"type":"SCALAR"},{"bufferView":2,"byteOffset":2272,"componentType":5123,"count":6,"type":"SCALAR"},{"bufferView":2,"byteOffset":2284,"componentType":5123,"count":213,"type":"SCALAR"},{"bufferView":2,"byteOffset":2712,"componentType":5123,"count":6,"type":"SCALAR"},{"bufferView":2,"byteOffset":2724,"componentType":5123,"count":6,"type":"SCALAR"},{"bufferView":2,"byteOffset":2736,"componentType":5123,"count":6,"type":"SCALAR"},{"bufferView":2,"byteOffset":2748,"componentType":5123,"count":213,"type":"SCALAR"},{"bufferView":2,"byteOffset":3176,"componentType":5123,"count":6,"type":"SCALAR"},{"bufferView":2,"byteOffset":3188,"componentType":5123,"count":198,"type":"SCALAR"}],"asset":{"generator":"Open CASCADE Technology 7.8 [dev.opencascade.org]","version":"2.0"},"bufferViews":[{"buffer":0,"byteLength":7488,"byteOffset":0,"byteStride":12,"target":34962},{"buffer":0,"byteLength":7488,"byteOffset":7488,"byteStride":12,"target":34962},{"buffer":0,"byteLength":3584,"byteOffset":14976,"target":34963}],"buffers":[{"byteLength":18560,"uri":"engine_bay_1.bin"}],"meshes":[{"name":"COMPOUND","primitives":[{"attributes":{"NORMAL":15,"POSITION":0},"indices":30,"mode":4},{"attributes":{"NORMAL":16,"POSITION":1},"indices":31,"mode":4},{"attributes":{"NORMAL":17,"POSITION":2},"indices":32,"mode":4},{"attributes":{"NORMAL":18,"POSITION":3},"indices":33,"mode":4},{"attributes":{"NORMAL":19,"POSITION":4},"indices":34,"mode":4},{"attributes":{"NORMAL":20,"POSITION":5},"indices":35,"mode":4},{"attributes":{"NORMAL":21,"POSITION":6},"indices":36,"mode":4},{"attributes":{"NORMAL":22,"POSITION":7},"indices":37,"mode":4},{"attributes":{"NORMAL":23,"POSITION":8},"indices":38,"mode":4},{"attributes":{"NORMAL":24,"POSITION":9},"indices":39,"mode":4},{"attributes":{"NORMAL":25,"POSITION":10},"indices":40,"mode":4},{"attributes":{"NORMAL":26,"POSITION":11},"indices":41,"mode":4},{"attributes":{"NORMAL":27,"POSITION":12},"indices":42,"mode":4},{"attributes":{"NORMAL":28,"POSITION":13},"indices":43,"mode":4},{"attributes":{"NORMAL":29,"POSITION":14},"indices":44,"mode":4}]}],"nodes":[{"rotation":[-0.7071067811865475,0.0,0.0,0.7071067811865475],"mesh":0,"name":"=>[0:1:1:2]"}],"scene":0,"scenes":[{"nodes":[0]}]}